<?xml version="1.0" standalone="no"?>
<!DOCTYPE svg PUBLIC "-//W3C//DTD SVG 20010904//EN"
 "http://www.w3.org/TR/2001/REC-SVG-20010904/DTD/svg10.dtd">
<svg version="1.0" xmlns="http://www.w3.org/2000/svg"
 width="280.000000pt" height="280.000000pt" viewBox="0 0 280.000000 280.000000"
 preserveAspectRatio="xMidYMid meet">
<metadata>
Created by potrace 1.11, written by Peter Selinger 2001-2013
</metadata>
<g transform="translate(0.000000,280.000000) scale(0.100000,-0.100000)"
fill="#000000" stroke="none">
<path d="M1713 2623 c20 -22 34 -43 30 -47 -4 -4 0 -4 10 0 15 6 22 -4 18 -28
0 -4 5 -5 12 -2 13 5 116 -65 117 -79 0 -5 -5 -5 -12 -1 -7 5 -8 3 -3 -5 5 -9
11 -9 17 -3 14 14 61 -16 51 -32 -4 -6 2 -4 12 4 10 8 16 10 12 3 -5 -7 1 -13
15 -16 16 -3 13 -5 -12 -6 -19 -2 -46 -4 -59 -7 -27 -5 -111 -41 -111 -47 0
-3 16 -3 37 -1 25 2 41 -2 50 -14 8 -9 12 -11 8 -4 -3 6 0 12 7 12 20 0 43
-18 35 -27 -5 -4 -12 -1 -16 6 -6 9 -10 9 -12 2 -2 -6 -29 -13 -59 -16 -30 -3
-75 -11 -100 -18 -25 -7 -58 -12 -75 -11 -16 1 -86 3 -155 4 l-126 3 1 43 c1
24 -1 42 -3 39 -2 -2 -10 1 -17 8 -7 7 -27 23 -43 36 -17 14 -28 29 -25 34 3
6 2 7 -4 4 -5 -4 -19 2 -29 11 -10 10 -33 28 -51 40 l-32 23 0 -58 c0 -32 0
-86 -1 -120 l-2 -63 -52 -1 c-28 -1 -61 -3 -73 -4 -13 -1 -23 3 -23 9 0 7 -3
7 -8 1 -4 -5 -19 -10 -35 -11 -23 -1 -25 1 -15 14 9 11 9 14 1 9 -8 -5 -11 0
-10 13 1 11 6 19 12 16 7 -2 12 2 12 9 0 7 -6 11 -13 8 -7 -2 -15 5 -19 16 -3
12 -10 21 -14 21 -5 0 -24 13 -42 30 -19 16 -38 30 -42 30 -5 0 -5 5 -2 10 3
6 0 10 -9 10 -8 0 -16 4 -18 8 -1 4 -18 18 -35 31 l-33 22 0 -123 c0 -68 -4
-128 -8 -134 -4 -7 -36 -15 -72 -18 -36 -3 -76 -8 -90 -10 -14 -3 -67 -12
-119 -21 -133 -23 -311 -70 -405 -108 -76 -30 -81 -34 -84 -64 -2 -21 1 -33 9
-33 8 0 7 -5 -2 -17 -13 -16 -12 -17 3 -5 10 8 23 10 30 6 10 -6 11 -5 1 8
-16 19 -8 28 24 22 15 -3 22 -1 18 6 -3 5 -1 10 5 10 7 0 10 -6 7 -12 -2 -7
-12 -12 -21 -12 -9 1 -16 -2 -16 -7 0 -6 12 -8 28 -5 15 2 30 5 35 5 4 1 7 9
7 19 0 15 -2 15 -11 2 -9 -13 -10 -13 -6 0 2 8 9 16 15 16 7 1 13 3 15 4 1 1
13 4 27 6 30 5 64 12 68 14 1 2 14 3 30 4 15 1 33 5 40 9 12 8 16 2 13 -18 -1
-5 8 1 19 14 12 14 20 18 20 10 0 -11 2 -11 10 1 6 10 10 11 10 3 0 -14 -58
-59 -71 -56 -5 2 -9 -1 -9 -5 0 -4 -25 -34 -55 -67 -57 -61 -65 -78 -21 -50
14 9 31 13 37 9 7 -4 9 -3 5 4 -3 6 3 16 15 22 17 10 20 9 14 -2 -3 -7 0 -4 9
6 15 19 16 18 26 -5 10 -23 10 -23 5 4 -4 20 -1 27 10 27 8 0 15 5 15 11 0 6
7 3 16 -5 8 -9 20 -16 25 -16 5 0 12 -1 16 -2 3 -2 7 4 8 13 2 9 -3 16 -11 16
-7 0 -11 -4 -8 -9 3 -4 0 -8 -5 -8 -6 0 -11 7 -11 16 0 10 6 14 15 11 8 -4 17
-2 20 4 4 5 11 7 16 4 5 -4 9 -1 9 6 0 9 3 9 14 0 9 -7 17 -8 20 -2 3 5 1 12
-4 14 -6 3 -5 4 2 3 7 -2 13 -8 13 -14 0 -7 3 -12 8 -12 4 0 12 0 17 0 6 0 10
9 10 21 0 16 4 19 21 14 13 -4 19 -3 16 2 -9 14 50 8 68 -7 17 -14 30 -7 30
18 0 13 9 17 35 17 19 1 41 4 48 9 16 10 21 5 27 -25 3 -13 5 -310 5 -661 1
-587 2 -637 17 -631 13 5 15 2 10 -11 -4 -9 -3 -15 2 -12 4 3 30 -15 57 -39
27 -24 52 -44 57 -45 4 0 7 -5 7 -11 0 -5 -6 -7 -13 -3 -6 4 -8 3 -4 -2 4 -4
18 -9 29 -9 12 0 23 -7 25 -15 4 -13 3 -13 -6 0 -7 9 -11 10 -11 3 0 -17 14
-23 30 -12 8 5 11 9 6 9 -5 0 -2 8 5 17 8 9 9 14 4 11 -7 -4 -10 111 -10 347
0 194 3 351 8 348 4 -2 7 1 7 6 0 6 -4 11 -10 11 -5 0 -10 5 -10 11 0 5 5 7
12 3 7 -5 8 -3 2 7 -11 17 -13 209 -2 203 4 -3 8 0 8 5 0 6 -4 11 -10 11 -5 0
-10 5 -10 11 0 5 5 7 12 3 7 -5 8 -3 2 7 -5 8 -9 118 -9 246 0 127 3 226 7
220 4 -7 8 -8 8 -4 0 4 9 3 20 -3 12 -6 18 -16 14 -23 -5 -9 -3 -8 6 0 12 11
11 15 -4 26 -15 11 -16 15 -4 24 9 8 19 9 28 3 13 -8 13 -10 1 -10 -27 0 -1
-14 29 -15 16 -1 27 1 24 4 -3 3 -10 6 -15 6 -5 0 -9 3 -9 8 0 4 0 10 0 13 0
4 7 1 15 -6 12 -10 19 -10 27 -2 8 8 17 8 30 1 13 -7 18 -6 18 2 0 24 13 -1
16 -31 3 -23 0 -29 -9 -24 -9 6 -9 5 0 -7 9 -11 12 -167 12 -625 0 -335 1
-616 3 -624 2 -7 10 -22 18 -32 8 -10 15 -24 15 -31 0 -7 9 -11 19 -9 13 3 17
-1 13 -12 -4 -10 -1 -13 9 -9 7 3 14 0 14 -7 0 -6 4 -9 9 -6 4 3 19 -6 31 -19
13 -14 19 -25 14 -25 -5 0 4 -7 21 -16 19 -10 31 -11 33 -5 2 6 9 8 14 5 7 -4
8 -2 4 5 -12 20 -17 61 -7 61 6 0 8 -9 6 -20 -2 -11 0 -22 4 -24 11 -7 8 35
-4 54 -14 22 -17 50 -5 50 5 0 7 6 4 13 -13 34 -10 103 5 115 9 8 10 11 4 7
-14 -7 -14 -7 -17 47 -2 24 1 35 8 31 6 -4 5 1 -3 10 -8 11 -9 17 -2 17 7 0 8
8 1 26 -12 32 -12 34 1 34 5 0 8 -4 5 -8 -2 -4 -1 -13 3 -20 4 -6 7 29 6 78 0
61 -4 89 -11 86 -6 -2 -11 2 -11 10 0 7 5 10 11 7 6 -4 5 1 -3 10 -9 12 -10
17 -2 17 7 0 10 4 7 8 -10 17 -15 112 -5 112 6 0 8 4 5 8 -10 17 -15 112 -5
112 6 0 7 4 4 10 -13 21 -14 51 -2 43 7 -4 6 0 -2 10 -9 12 -10 17 -2 17 7 0
10 4 7 8 -10 17 -15 112 -5 112 6 0 8 4 5 8 -10 16 -15 112 -6 112 6 0 6 10 0
26 -12 32 -12 34 1 34 5 0 8 -4 5 -8 -2 -4 -1 -13 3 -20 4 -7 7 23 6 67 0 43
-5 85 -11 92 -9 12 -12 83 -4 99 1 3 2 10 0 15 -1 6 4 4 12 -3 8 -8 9 -15 3
-20 -6 -4 -12 -14 -13 -22 -2 -8 0 -12 4 -8 4 4 14 2 23 -4 13 -10 14 -10 4 2
-7 8 -13 18 -13 22 0 11 23 6 33 -7 5 -6 7 -3 3 7 -7 24 31 46 40 23 3 -8 10
-15 16 -15 5 0 6 6 2 13 -4 6 -4 9 1 5 4 -4 15 -2 23 5 13 9 14 9 8 0 -5 -9 0
-12 16 -10 25 2 27 -9 13 -68 -3 -16 -10 -82 -14 -145 -4 -63 -13 -125 -19
-136 -10 -19 -9 -23 8 -27 11 -3 18 -1 14 4 -3 5 0 10 5 10 12 2 26 5 39 9 4
1 10 2 15 1 14 -2 7 17 -8 23 -13 4 -14 10 -5 26 6 11 9 24 6 29 -3 4 1 8 9 8
16 0 19 -9 8 -21 -11 -10 -12 -37 -2 -30 5 3 7 10 4 15 -4 5 -2 9 4 9 5 0 19
-21 31 -46 13 -25 33 -57 46 -71 13 -14 21 -30 17 -36 -3 -5 -1 -7 5 -3 6 3
17 -2 24 -12 18 -26 68 -57 68 -43 0 6 -4 11 -9 11 -5 0 -11 8 -13 18 -3 11 0
19 7 19 8 0 11 -7 7 -15 -3 -10 -1 -13 6 -8 12 7 15 -3 13 -34 0 -10 1 -11 5
-2 3 6 10 9 16 6 6 -4 5 3 -2 15 -10 21 -10 21 10 9 11 -7 18 -18 16 -25 -7
-18 49 -44 65 -29 9 8 11 6 7 -9 -4 -15 0 -21 13 -21 15 0 16 3 6 15 -7 9 7 1
31 -18 30 -24 40 -28 35 -14 -6 17 -6 17 14 0 16 -14 20 -14 20 -2 0 8 -3 13
-6 11 -3 -2 -12 2 -18 10 -8 8 -9 15 -3 19 6 3 10 1 10 -5 0 -6 3 -9 8 -7 10
7 32 -19 24 -29 -4 -4 1 -4 11 -1 9 4 17 3 17 -1 0 -4 14 -15 31 -24 17 -10
27 -22 24 -28 -3 -5 3 -10 15 -10 12 0 19 -4 16 -9 -3 -5 3 -11 14 -14 11 -3
20 -11 20 -19 0 -10 -3 -9 -11 2 -9 13 -10 13 -6 0 2 -8 9 -14 15 -13 14 3 39
-27 67 -83 22 -44 25 -47 31 -26 3 12 10 22 16 22 5 0 4 10 -2 23 -11 21 -10
21 4 3 12 -15 13 -23 4 -33 -9 -11 -7 -12 8 -6 17 6 18 5 4 -12 -14 -17 -13
-18 2 -12 19 7 19 5 20 -98 1 -87 -25 -147 -88 -205 -41 -38 -42 -40 -18 -40
14 0 22 -4 19 -10 -3 -5 1 -10 9 -10 14 0 15 -27 1 -50 -12 -20 -67 -41 -108
-42 -53 -1 -79 5 -146 31 l-53 22 6 -26 c8 -31 -13 -56 -43 -50 -31 6 -93 56
-87 71 3 8 0 11 -8 8 -8 -3 -15 4 -18 18 -3 13 -9 32 -13 42 -7 15 -5 17 6 11
12 -8 12 -6 0 8 -8 11 -9 17 -3 17 6 0 9 7 6 15 -4 8 -1 15 7 15 7 0 10 2 7 5
-3 3 -23 -1 -44 -9 -47 -17 -71 -17 -71 1 0 7 4 13 9 13 4 0 8 4 8 10 0 5 -6
7 -13 4 -8 -3 -14 2 -14 11 0 9 6 14 14 11 10 -4 11 -1 5 12 -8 15 -8 34 0 88
1 6 9 9 19 7 9 -3 20 0 23 6 4 6 1 9 -7 5 -21 -8 -32 15 -16 30 8 6 11 7 7 2
-5 -6 -8 -15 -8 -21 0 -5 7 -1 15 9 9 12 11 23 5 30 -6 8 5 27 32 56 22 25 37
40 34 34 -3 -7 0 -14 8 -17 9 -4 12 0 9 13 -3 10 -1 25 4 33 7 13 10 13 23 -1
13 -14 12 -15 -3 -9 -9 3 -17 2 -17 -3 0 -11 11 -13 34 -4 15 6 15 8 1 18 -11
8 -12 15 -4 26 9 13 10 13 6 -2 -4 -11 -1 -15 11 -13 9 2 20 4 25 4 4 1 7 6 7
12 0 8 -5 8 -15 -1 -9 -7 -15 -8 -15 -2 0 13 56 39 100 47 51 9 48 12 -22 20
-140 17 -223 -1 -333 -70 -88 -56 -129 -109 -170 -220 -4 -11 -9 -60 -12 -109
-6 -99 -21 -136 -58 -136 -27 0 -52 -25 -35 -35 6 -4 9 -1 8 6 -2 8 7 14 20
15 12 1 22 -2 22 -6 0 -4 12 -5 26 -2 28 5 70 64 68 94 -1 10 2 16 5 13 11 -6
6 -70 -5 -68 -5 1 -10 -8 -11 -20 0 -12 1 -16 4 -9 3 6 9 12 14 12 6 0 8 -4 5
-9 -4 -5 -2 -11 3 -13 5 -1 11 -16 14 -33 2 -16 9 -43 16 -59 6 -16 9 -36 7
-43 -3 -8 -2 -12 3 -8 5 3 17 -13 27 -35 10 -22 22 -40 27 -40 5 0 7 -7 4 -15
-4 -8 -1 -17 5 -21 7 -4 8 -3 4 4 -13 22 5 12 29 -15 14 -16 23 -33 20 -40 -2
-7 2 -10 9 -7 8 3 17 0 22 -7 4 -7 3 -10 -4 -5 -6 3 -13 3 -16 -2 -2 -4 5 -9
17 -9 12 -1 29 -11 38 -22 9 -11 19 -17 23 -14 5 6 10 -11 8 -28 -1 -4 8 -5
18 -2 11 3 20 0 20 -6 0 -6 7 -11 15 -11 12 0 40 -36 38 -50 -1 -3 0 -7 3 -9
2 -2 2 6 -1 18 -6 30 13 26 25 -5 6 -14 14 -22 20 -19 5 3 10 8 10 11 0 3 -4
2 -10 -1 -5 -3 -10 -1 -10 5 0 8 7 9 18 5 9 -4 25 -10 34 -12 10 -3 15 -9 12
-14 -3 -5 0 -9 7 -9 6 0 18 -8 26 -17 9 -10 7 -5 -3 12 l-18 30 25 -17 c13 -9
23 -22 21 -28 -1 -6 2 -9 7 -5 6 3 8 12 5 20 -4 10 0 12 15 8 12 -3 21 -10 21
-15 0 -5 -5 -6 -12 -2 -7 4 -8 3 -4 -5 6 -8 12 -9 20 -2 7 6 17 7 22 3 4 -4 2
1 -5 11 -22 28 -4 19 30 -16 18 -17 27 -25 21 -17 -7 10 -7 21 -2 30 8 12 10
12 10 1 0 -7 6 -11 14 -8 37 14 44 -56 10 -94 -31 -35 -129 -41 -228 -16 -31
8 -56 12 -56 8 0 -3 20 -26 44 -51 24 -25 42 -49 38 -54 -3 -5 0 -6 7 -2 7 4
28 0 47 -9 19 -9 45 -18 57 -21 12 -2 23 -8 25 -14 2 -5 8 -10 13 -10 6 0 7 6
3 13 -6 9 -4 9 7 -1 15 -14 33 -16 25 -3 -7 10 35 8 52 -3 6 -3 14 -1 18 5 4
7 3 9 -4 5 -6 -3 -14 -1 -18 5 -4 7 -3 9 4 5 6 -3 13 -2 17 4 3 5 12 10 18 10
7 0 6 -4 -3 -10 -11 -8 -7 -10 17 -8 17 1 29 6 27 10 -3 4 6 13 20 19 14 7 23
16 20 20 -3 5 -1 9 4 9 5 0 8 10 7 22 -1 13 5 34 14 47 15 23 21 41 23 69 1 7
9 10 20 6 10 -3 18 -1 18 5 0 6 -3 10 -7 10 -22 -4 -32 3 -30 21 1 12 7 18 14
16 7 -3 10 1 6 9 -3 8 -8 13 -12 11 -4 -3 -7 4 -7 14 0 14 3 16 13 8 10 -8 12
-7 7 6 -3 9 -10 16 -15 16 -5 0 -9 8 -9 18 0 14 2 15 10 2 7 -12 9 -10 7 7 0
12 -5 19 -9 17 -4 -3 -8 -1 -8 5 0 5 8 12 18 14 14 4 15 5 1 6 -9 0 -19 10
-22 22 -5 20 -5 20 15 2 l21 -18 -18 28 c-13 21 -16 41 -13 84 4 42 2 52 -6
41 -38 -50 -56 -68 -92 -91 -119 -74 -292 -71 -430 8 -52 31 -65 47 -54 65 6
8 10 10 10 5 0 -10 8 -12 80 -16 22 -2 30 -7 30 -21 0 -21 9 -23 35 -5 11 7
38 12 60 11 22 -1 44 3 48 10 6 8 10 8 14 -1 2 -7 11 -13 19 -13 9 0 13 4 10
8 -5 8 1 10 44 14 11 1 20 6 20 11 0 5 9 -1 21 -14 l20 -24 -12 25 c-6 14 -8
22 -4 18 4 -4 17 -1 29 7 24 18 36 19 36 4 0 -5 -5 -7 -12 -3 -7 4 -8 3 -4 -4
4 -8 2 -10 -7 -6 -8 3 -17 1 -21 -4 -7 -12 26 -12 42 1 8 6 12 5 12 -4 0 -11
2 -11 10 1 5 8 10 20 10 25 0 6 -5 3 -10 -5 -8 -13 -10 -12 -10 3 0 16 10 21
39 18 7 -2 10 2 7 7 -3 5 2 16 12 23 15 13 16 12 3 -3 -9 -13 -10 -18 -2 -18
7 0 9 -5 5 -12 -5 -8 2 -6 16 3 14 9 26 25 27 35 2 15 1 15 -9 -3 -6 -13 -15
-23 -21 -23 -5 0 -4 7 3 15 7 8 9 15 5 15 -4 0 8 13 28 29 20 15 33 31 29 35
-3 4 1 4 11 0 13 -4 17 -1 17 15 0 12 5 21 11 21 5 0 7 -4 4 -10 -3 -6 1 -7 9
-4 19 7 21 20 4 30 -7 5 -8 3 -3 -6 5 -9 4 -11 -3 -6 -17 10 -15 15 12 25 13
5 26 20 29 33 l6 23 -20 -25 -20 -25 12 25 c7 14 12 28 11 32 -1 4 5 5 13 2 8
-4 15 -2 15 4 0 6 -6 13 -12 15 -10 4 -10 6 -1 6 7 1 10 8 7 19 -5 14 -4 14 4
2 6 -8 8 -18 6 -22 -3 -4 0 -8 6 -8 7 0 9 7 6 16 -6 15 17 48 26 38 3 -2 4 6
3 20 -2 15 3 27 13 31 14 5 15 7 2 16 -12 9 -10 10 7 6 13 -3 26 0 30 5 3 6 2
8 -3 5 -6 -3 -16 -2 -24 4 -10 6 -11 9 -2 9 6 0 12 5 12 11 0 5 -6 7 -12 3
-10 -6 -10 -4 0 7 6 7 12 17 12 22 0 4 -6 5 -12 1 -10 -6 -10 -5 -1 7 7 8 10
29 7 48 -4 22 -2 31 5 27 7 -4 8 -1 5 8 -3 9 -11 16 -18 16 -6 0 -4 5 4 10 8
5 10 10 4 10 -7 0 -14 9 -17 20 -3 13 -1 18 6 13 8 -4 8 -2 0 9 -7 8 -10 18
-6 21 3 4 1 7 -5 7 -6 0 -9 7 -5 17 5 12 3 14 -7 8 -10 -6 -12 -3 -8 13 4 12
3 20 -1 18 -4 -3 -19 15 -35 40 -15 24 -32 44 -38 44 -5 0 -6 5 -3 10 3 6 3
10 -2 10 -4 1 -30 21 -57 45 -28 25 -54 45 -58 45 -5 0 -7 4 -4 8 3 5 0 9 -7
9 -7 0 -39 18 -72 40 -33 22 -67 43 -75 46 -8 4 -28 16 -45 27 -16 10 -62 36
-102 56 -40 21 -70 41 -67 46 3 5 2 8 -3 7 -17 -4 -81 32 -137 78 -58 47 -69
64 -47 71 7 2 9 -4 5 -15 -5 -14 -4 -15 4 -3 14 18 4 33 -17 27 -13 -3 -17 3
-16 23 0 18 4 26 13 23 10 -4 10 -8 0 -22 -11 -14 -11 -14 3 -4 9 7 18 11 21
8 2 -3 5 2 5 10 0 8 -4 12 -8 10 -3 -3 -9 5 -12 17 -4 16 -3 18 6 9 17 -17 31
-13 17 4 -7 9 -10 18 -6 22 3 3 6 1 6 -6 0 -7 5 -9 10 -6 6 4 8 11 5 16 -3 5
2 6 11 2 13 -5 15 -3 9 7 -6 9 -4 11 4 6 9 -6 8 -13 -6 -29 -18 -22 -18 -22 3
-4 11 9 24 14 29 10 4 -5 3 1 -3 13 -10 19 -9 21 15 16 15 -3 24 -1 20 5 -3 5
0 10 8 10 8 0 12 -4 9 -9 -3 -4 0 -8 6 -8 6 0 8 -5 4 -12 -5 -7 -3 -8 5 -4 7
5 10 14 8 20 -3 7 1 13 9 13 10 0 12 -7 8 -21 -4 -15 -3 -17 4 -7 6 8 15 10
22 6 9 -5 11 -4 6 3 -4 7 -1 12 9 12 8 0 20 -11 25 -25 12 -31 24 -33 15 -2
-5 17 -4 19 4 7 6 -8 11 -11 11 -7 0 5 14 -1 30 -13 38 -27 62 -73 63 -120 l1
-37 29 17 c19 12 41 16 64 13 28 -4 34 -2 27 9 -6 9 -2 9 12 -2 33 -26 44 -38
44 -49 0 -6 4 -11 10 -11 5 0 12 -11 16 -25 7 -27 19 -33 27 -12 3 7 6 5 6 -5
1 -10 5 -18 11 -18 5 0 7 6 4 14 -3 8 7 23 24 35 37 26 48 27 25 3 -10 -11
-21 -17 -25 -15 -11 5 -19 -15 -9 -21 5 -4 12 -2 16 4 4 6 11 8 16 5 5 -3 6 1
3 9 -4 11 0 16 10 16 9 0 16 5 16 11 0 6 9 9 20 6 10 -3 21 0 24 7 3 8 5 7 5
-1 1 -7 8 -10 18 -6 11 4 14 3 9 -5 -4 -7 -2 -12 3 -12 6 0 11 5 11 12 0 9 3
9 12 0 18 -18 49 -15 42 3 -4 8 -10 13 -14 10 -10 -6 -45 33 -37 41 4 4 10 -1
13 -10 5 -14 9 -15 15 -4 7 10 9 11 9 0 0 -7 5 -10 12 -6 7 4 8 3 4 -4 -4 -7
3 -17 18 -24 14 -6 26 -17 26 -25 0 -7 5 -13 10 -13 6 0 10 -8 10 -17 1 -17 1
-17 14 -1 7 10 15 16 18 13 2 -3 5 2 5 10 0 8 -3 12 -7 10 -4 -2 -7 2 -7 10 0
8 4 12 8 10 4 -3 9 2 13 10 3 8 0 14 -7 12 -7 -1 -12 11 -13 31 -2 20 2 30 8
26 7 -4 8 -2 4 5 -4 6 -11 9 -16 6 -11 -7 -61 85 -53 98 3 6 1 7 -5 3 -7 -4
-14 3 -18 19 -7 29 -8 29 -35 14 -22 -11 -40 3 -59 49 -11 25 -25 29 -34 7 -3
-8 -12 -15 -20 -15 -14 0 -71 64 -71 80 0 5 -5 14 -12 21 -6 6 -9 18 -6 25 3
8 0 14 -6 14 -6 0 -11 6 -11 14 0 7 -7 19 -15 26 -9 7 -14 19 -11 27 3 8 2 11
-3 8 -6 -3 -20 5 -33 18 -22 21 -87 57 -104 57 -4 0 5 -14 22 -31 23 -25 25
-29 7 -20 -12 6 -28 17 -36 25 -38 39 -179 99 -262 112 -97 16 -196 53 -275
102 l-55 34 38 -39z m651 -406 c3 4 6 -1 6 -11 0 -9 4 -15 9 -11 5 3 12 1 15
-4 8 -12 -13 -8 -40 7 -12 6 -24 22 -27 34 l-6 23 18 -22 c10 -12 21 -19 25
-16z m-911 -112 c-3 -9 -8 -14 -10 -11 -3 3 -2 9 2 15 9 16 15 13 8 -4z m-799
-42 c3 -7 2 -13 -3 -13 -5 0 -14 6 -20 13 -8 10 -7 14 4 14 8 0 16 -6 19 -14z
m1981 -11 c-3 -3 -11 0 -18 7 -9 10 -8 11 6 5 10 -3 15 -9 12 -12z m-2124 -25
c-10 -9 -11 -8 -5 6 3 10 9 15 12 12 3 -3 0 -11 -7 -18z m906 -52 c0 -8 -4
-12 -9 -9 -4 3 -8 9 -8 15 0 5 4 9 8 9 5 0 9 -7 9 -15z m1129 -16 c3 -6 15 -9
25 -6 10 3 22 1 25 -4 3 -5 11 -6 17 -3 7 4 6 1 -2 -7 -8 -9 -15 -10 -17 -3
-3 6 -24 9 -49 7 -37 -3 -44 -1 -39 12 7 17 30 20 40 4z m-112 -11 c-6 -10 10
-11 20 -1 10 11 36 12 36 2 0 -17 -51 -22 -66 -7 -13 13 -13 15 0 15 8 0 13
-4 10 -9z m-1017 -13 c0 -8 -4 -12 -9 -9 -4 3 -8 9 -8 15 0 5 4 9 8 9 5 0 9
-7 9 -15z m0 -40 c0 -8 -4 -12 -9 -9 -4 3 -8 9 -8 15 0 5 4 9 8 9 5 0 9 -7 9
-15z m228 -35 c3 -5 1 -10 -4 -10 -6 0 -11 5 -11 10 0 6 2 10 4 10 3 0 8 -4
11 -10z m-25 -94 c0 -3 -4 -8 -10 -11 -5 -3 -10 -1 -10 4 0 6 5 11 10 11 6 0
10 -2 10 -4z m351 -43 c13 -17 13 -17 -6 -3 -11 8 -22 16 -24 17 -2 2 0 3 6 3
6 0 17 -8 24 -17z m50 -31 c-7 -2 -18 1 -23 6 -8 8 -4 9 13 5 13 -4 18 -8 10
-11z m54 -14 c5 4 5 1 1 -6 -6 -10 -11 -10 -22 -1 -8 6 -14 14 -14 16 0 3 6 0
13 -6 8 -6 18 -7 22 -3z m79 -36 c3 -5 -1 -9 -9 -9 -8 0 -12 4 -9 9 3 4 7 8 9
8 2 0 6 -4 9 -8z m92 -60 c-6 -5 -75 33 -76 41 0 4 18 -3 39 -15 22 -12 38
-24 37 -26z m-302 -8 c5 -13 3 -14 -6 -7 -7 6 -20 13 -28 16 -10 4 -8 6 6 6
12 1 25 -6 28 -15z m403 -67 c6 -10 -10 2 -73 53 -7 5 -15 6 -20 2 -4 -4 -4
-1 0 6 6 9 18 4 47 -18 21 -18 42 -37 46 -43z m-930 -332 c0 -8 -4 -12 -9 -9
-4 3 -8 9 -8 15 0 5 4 9 8 9 5 0 9 -7 9 -15z m290 -25 c-1 -11 -6 -20 -11 -20
-5 0 -6 -3 -3 -7 4 -3 -1 -15 -10 -25 -16 -18 -16 -18 0 -12 10 3 17 1 17 -5
0 -6 -7 -11 -15 -11 -8 0 -15 -5 -15 -11 0 -5 5 -7 10 -4 16 10 11 -4 -9 -26
-19 -21 -19 -20 -16 18 2 21 4 40 5 43 2 3 2 8 1 13 0 4 5 6 12 5 7 -2 12 6
11 20 -1 12 3 22 8 22 6 0 7 7 4 16 -3 8 -2 12 3 9 6 -3 9 -14 8 -25z m-290
-15 c0 -8 -4 -12 -9 -9 -4 3 -8 9 -8 15 0 5 4 9 8 9 5 0 9 -7 9 -15z m0 -40
c0 -8 -4 -12 -9 -9 -4 3 -8 9 -8 15 0 5 4 9 8 9 5 0 9 -7 9 -15z m1084 -48
c-10 -9 -11 -8 -5 6 3 10 9 15 12 12 3 -3 0 -11 -7 -18z m-924 -36 c0 -11 -5
-18 -9 -15 -4 3 -5 11 -1 19 7 21 12 19 10 -4z m914 -8 c-12 -20 -14 -14 -5
12 4 9 9 14 11 11 3 -2 0 -13 -6 -23z m99 17 c0 -5 -5 -10 -11 -10 -5 0 -7 5
-4 10 3 6 8 10 11 10 2 0 4 -4 4 -10z m-127 -100 c-3 -12 -8 -19 -11 -16 -5 6
5 36 12 36 2 0 2 -9 -1 -20z m-648 -158 c-3 -3 -11 0 -18 7 -9 10 -8 11 6 5
10 -3 15 -9 12 -12z m40 -12 c3 -6 -1 -7 -9 -4 -18 7 -21 14 -7 14 6 0 13 -4
16 -10z m155 -129 c0 -5 -7 -12 -16 -15 -14 -5 -15 -4 -4 9 14 17 20 19 20 6z
m345 -178 c-1 -10 0 -22 4 -28 10 -17 7 -29 -9 -43 -13 -10 -13 -12 0 -9 8 2
12 2 8 0 -4 -2 -5 -10 -2 -18 3 -7 0 -16 -5 -20 -6 -3 -9 -11 -6 -16 4 -5 1
-9 -4 -9 -14 0 -14 6 -1 31 7 13 7 19 0 19 -5 0 -10 9 -10 20 0 11 5 20 10 20
6 0 10 5 10 10 0 6 -6 9 -12 8 -7 -2 -12 3 -10 10 2 11 -11 16 -31 13 -5 -1
-6 3 -2 9 4 7 12 7 25 0 22 -12 30 -13 29 -2 -2 11 1 22 5 22 2 0 3 -8 1 -17z
m-15 -162 c0 -5 -8 -15 -17 -22 -16 -12 -17 -12 -6 2 7 9 10 19 6 22 -3 4 -1
7 5 7 7 0 12 -4 12 -9z m34 -116 c-4 -8 -9 -15 -13 -15 -4 0 -8 7 -8 15 0 8 6
15 13 15 8 0 11 -6 8 -15z m-34 -24 c0 -6 -4 -12 -8 -15 -5 -3 -9 1 -9 9 0 8
4 15 9 15 4 0 8 -4 8 -9z"/>
<path d="M1803 2523 c12 -3 16 -10 12 -21 -5 -13 -3 -14 6 -5 14 14 3 33 -19
32 -15 -1 -14 -2 1 -6z"/>
<path d="M1850 2486 c0 -8 4 -17 9 -20 5 -4 7 3 4 14 -6 23 -13 26 -13 6z"/>
<path d="M1913 2447 c0 -8 6 -14 14 -14 9 0 10 4 2 14 -6 7 -12 13 -14 13 -1
0 -2 -6 -2 -13z"/>
<path d="M1136 2113 c-13 -13 -5 -22 19 -19 14 1 26 5 28 7 1 2 0 3 -2 2 -2
-1 -11 2 -21 7 -10 5 -20 6 -24 3z"/>
<path d="M1486 2101 c-3 -5 2 -15 12 -22 15 -12 16 -12 5 2 -7 9 -10 19 -6 22
3 4 4 7 0 7 -3 0 -8 -4 -11 -9z"/>
<path d="M1540 2093 c0 -19 14 -22 35 -7 10 8 14 14 8 14 -7 0 -15 -5 -19 -11
-4 -8 -9 -7 -15 2 -6 10 -9 10 -9 2z"/>
<path d="M306 2083 c-4 -5 -21 -9 -37 -9 -16 -1 -30 -2 -31 -4 -5 -3 -43 -12
-65 -13 -27 -2 -42 -16 -17 -15 11 0 27 -3 37 -7 12 -5 17 -2 17 10 0 14 3 15
14 6 10 -8 16 -9 21 -1 3 6 10 8 15 5 5 -3 11 -1 15 4 3 6 12 8 19 5 7 -3 16
2 19 10 7 17 4 20 -7 9z"/>
<path d="M750 2080 c0 -5 5 -10 11 -10 5 0 7 5 4 10 -3 6 -8 10 -11 10 -2 0
-4 -4 -4 -10z"/>
<path d="M677 2062 c4 -10 8 -11 13 -2 6 9 9 9 12 -1 3 -10 6 -9 10 2 4 11 -1
15 -17 15 -15 0 -21 -5 -18 -14z"/>
<path d="M726 2062 c-3 -5 1 -9 9 -9 8 0 12 4 9 9 -3 4 -7 8 -9 8 -2 0 -6 -4
-9 -8z"/>
<path d="M604 2045 c8 -8 18 -15 22 -15 3 0 1 7 -6 15 -7 8 -17 15 -22 15 -5
0 -3 -7 6 -15z"/>
<path d="M993 2047 c0 -8 6 -14 14 -14 9 0 10 4 2 14 -6 7 -12 13 -14 13 -1 0
-2 -6 -2 -13z"/>
<path d="M543 2028 c-2 -16 0 -17 13 -3 9 8 21 12 27 8 7 -3 9 -2 4 2 -14 16
-43 12 -44 -7z"/>
<path d="M1413 2030 c1 -11 5 -20 9 -20 3 0 6 9 5 20 -1 11 -5 20 -9 20 -3 0
-6 -9 -5 -20z"/>
<path d="M442 2001 c20 -26 22 -27 15 -8 -7 20 4 22 21 5 9 -9 12 -9 12 0 0
13 -1 13 -38 17 -19 2 -20 0 -10 -14z"/>
<path d="M28 1983 c7 -3 16 -2 19 1 4 3 -2 6 -13 5 -11 0 -14 -3 -6 -6z"/>
<path d="M370 1959 c0 -5 5 -7 10 -4 6 3 10 8 10 11 0 2 -4 4 -10 4 -5 0 -10
-5 -10 -11z"/>
<path d="M996 1962 c-3 -5 1 -9 9 -9 8 0 12 4 9 9 -3 4 -7 8 -9 8 -2 0 -6 -4
-9 -8z"/>
<path d="M2267 1911 c-4 -17 -3 -21 5 -13 5 5 8 16 6 23 -3 8 -7 3 -11 -10z"/>
<path d="M2293 1915 c0 -8 4 -12 9 -9 5 3 6 10 3 15 -9 13 -12 11 -12 -6z"/>
<path d="M2340 1920 c0 -5 5 -10 11 -10 5 0 7 5 4 10 -3 6 -8 10 -11 10 -2 0
-4 -4 -4 -10z"/>
<path d="M993 1887 c0 -8 6 -14 14 -14 9 0 10 4 2 14 -6 7 -12 13 -14 13 -1 0
-2 -6 -2 -13z"/>
<path d="M2560 1870 c8 -5 20 -10 25 -10 6 0 3 5 -5 10 -8 5 -19 10 -25 10 -5
0 -3 -5 5 -10z"/>
<path d="M995 1849 c-4 -6 -5 -12 -2 -15 2 -3 7 2 10 11 7 17 1 20 -8 4z"/>
<path d="M1413 1785 c0 -8 4 -15 9 -15 4 0 8 4 8 9 0 6 -4 12 -8 15 -5 3 -9
-1 -9 -9z"/>
<path d="M994 1762 c4 -3 14 -7 22 -8 9 -1 13 0 10 4 -4 3 -14 7 -22 8 -9 1
-13 0 -10 -4z"/>
<path d="M994 1720 c0 -13 4 -16 10 -10 7 7 7 13 0 20 -6 6 -10 3 -10 -10z"/>
<path d="M1595 1721 c-3 -5 -2 -12 3 -15 5 -3 9 1 9 9 0 17 -3 19 -12 6z"/>
<path d="M995 1680 c3 -5 8 -10 11 -10 2 0 4 5 4 10 0 6 -5 10 -11 10 -5 0 -7
-4 -4 -10z"/>
<path d="M1413 1665 c0 -8 4 -15 9 -15 4 0 8 4 8 9 0 6 -4 12 -8 15 -5 3 -9
-1 -9 -9z"/>
<path d="M990 1546 c0 -2 7 -7 16 -10 8 -3 12 -2 9 4 -6 10 -25 14 -25 6z"/>
<path d="M1415 1520 c3 -5 8 -10 11 -10 2 0 4 5 4 10 0 6 -5 10 -11 10 -5 0
-7 -4 -4 -10z"/>
<path d="M994 1480 c0 -13 4 -16 10 -10 7 7 7 13 0 20 -6 6 -10 3 -10 -10z"/>
<path d="M2146 1476 c10 -8 21 -12 24 -10 5 6 -21 24 -34 24 -6 0 -1 -6 10
-14z"/>
<path d="M1413 1465 c0 -8 4 -15 9 -15 4 0 8 4 8 9 0 6 -4 12 -8 15 -5 3 -9
-1 -9 -9z"/>
<path d="M995 1440 c3 -5 8 -10 11 -10 2 0 4 5 4 10 0 6 -5 10 -11 10 -5 0 -7
-4 -4 -10z"/>
<path d="M2028 1383 c7 -3 16 -2 19 1 4 3 -2 6 -13 5 -11 0 -14 -3 -6 -6z"/>
<path d="M1986 1368 c3 -5 10 -6 15 -3 13 9 11 12 -6 12 -8 0 -12 -4 -9 -9z"/>
<path d="M1413 1345 c0 -8 4 -15 9 -15 4 0 8 4 8 9 0 6 -4 12 -8 15 -5 3 -9
-1 -9 -9z"/>
<path d="M990 1306 c0 -2 7 -7 16 -10 8 -3 12 -2 9 4 -6 10 -25 14 -25 6z"/>
<path d="M1835 1252 c-16 -20 -24 -33 -17 -28 7 4 12 2 12 -6 1 -13 24 20 25
35 0 4 6 12 14 16 7 5 9 11 5 13 -5 3 -22 -11 -39 -30z"/>
<path d="M994 1240 c0 -13 4 -16 10 -10 7 7 7 13 0 20 -6 6 -10 3 -10 -10z"/>
<path d="M990 1206 c0 -2 7 -7 16 -10 8 -3 12 -2 9 4 -6 10 -25 14 -25 6z"/>
<path d="M996 1162 c-3 -5 1 -9 9 -9 8 0 12 4 9 9 -3 4 -7 8 -9 8 -2 0 -6 -4
-9 -8z"/>
<path d="M1779 1123 c-13 -16 -12 -17 4 -4 16 13 21 21 13 21 -2 0 -10 -8 -17
-17z"/>
<path d="M1780 1100 c-8 -5 -10 -10 -5 -10 6 0 17 5 25 10 8 5 11 10 5 10 -5
0 -17 -5 -25 -10z"/>
<path d="M993 1087 c0 -8 6 -14 14 -14 9 0 10 4 2 14 -6 7 -12 13 -14 13 -1 0
-2 -6 -2 -13z"/>
<path d="M996 1002 c-3 -5 1 -9 9 -9 8 0 12 4 9 9 -3 4 -7 8 -9 8 -2 0 -6 -4
-9 -8z"/>
<path d="M2613 955 c0 -8 4 -12 9 -9 5 3 6 10 3 15 -9 13 -12 11 -12 -6z"/>
<path d="M1410 946 c0 -2 7 -7 16 -10 8 -3 12 -2 9 4 -6 10 -25 14 -25 6z"/>
<path d="M993 927 c0 -8 6 -14 14 -14 9 0 10 4 2 14 -6 7 -12 13 -14 13 -1 0
-2 -6 -2 -13z"/>
<path d="M2575 899 c-4 -6 -5 -12 -2 -15 2 -3 7 2 10 11 7 17 1 20 -8 4z"/>
<path d="M995 889 c-4 -6 -5 -12 -2 -15 2 -3 7 2 10 11 7 17 1 20 -8 4z"/>
<path d="M1526 862 c-3 -5 1 -9 9 -9 8 0 12 4 9 9 -3 4 -7 8 -9 8 -2 0 -6 -4
-9 -8z"/>
<path d="M2549 843 c-13 -16 -12 -17 4 -4 9 7 17 15 17 17 0 8 -8 3 -21 -13z"/>
<path d="M994 802 c4 -3 14 -7 22 -8 9 -1 13 0 10 4 -4 3 -14 7 -22 8 -9 1
-13 0 -10 -4z"/>
<path d="M994 760 c0 -13 4 -16 10 -10 7 7 7 13 0 20 -6 6 -10 3 -10 -10z"/>
<path d="M1413 745 c0 -7 6 -11 14 -8 7 3 13 6 13 8 0 2 -6 5 -13 8 -8 3 -14
-1 -14 -8z"/>
<path d="M2441 747 c-9 -11 -8 -17 6 -28 9 -8 14 -9 10 -2 -4 6 -1 13 5 16 10
3 10 8 2 16 -8 9 -14 8 -23 -2z"/>
<path d="M830 721 c0 -6 4 -13 10 -16 6 -3 7 1 4 9 -7 18 -14 21 -14 7z"/>
<path d="M995 720 c3 -5 8 -10 11 -10 2 0 4 5 4 10 0 6 -5 10 -11 10 -5 0 -7
-4 -4 -10z"/>
<path d="M1307 689 c7 -9 10 -19 6 -22 -3 -4 -1 -7 5 -7 17 0 15 16 -5 31 -16
12 -17 12 -6 -2z"/>
<path d="M2347 664 c3 -7 9 -14 14 -14 14 0 10 17 -5 23 -10 4 -13 1 -9 -9z"/>
<path d="M1400 620 c-8 -5 -10 -10 -5 -10 6 0 17 5 25 10 8 5 11 10 5 10 -5 0
-17 -5 -25 -10z"/>
<path d="M1856 618 c3 -5 9 -6 14 -3 4 3 10 0 12 -7 3 -8 6 -7 10 3 4 11 -1
15 -17 15 -13 0 -21 -4 -19 -8z"/>
<path d="M2181 620 c-9 -5 -10 -10 -2 -14 6 -4 11 -2 11 3 0 6 5 11 10 11 7 0
7 -8 -1 -22 l-11 -23 21 22 c11 12 21 24 21 25 0 8 -37 6 -49 -2z"/>
<path d="M1910 612 c0 -5 7 -9 15 -9 8 0 12 4 9 9 -3 4 -9 8 -15 8 -5 0 -9 -4
-9 -8z"/>
<path d="M2026 595 c4 -8 11 -15 16 -15 6 0 5 6 -2 15 -7 8 -14 15 -16 15 -2
0 -1 -7 2 -15z"/>
<path d="M2056 598 c3 -5 10 -6 15 -3 13 9 11 12 -6 12 -8 0 -12 -4 -9 -9z"/>
<path d="M2102 602 c-8 -6 -2 -9 18 -9 20 0 26 3 18 9 -7 4 -15 8 -18 8 -3 0
-11 -4 -18 -8z"/>
<path d="M1930 579 c0 -5 5 -7 10 -4 6 3 10 8 10 11 0 2 -4 4 -10 4 -5 0 -10
-5 -10 -11z"/>
<path d="M2453 555 c0 -8 4 -12 9 -9 5 3 6 10 3 15 -9 13 -12 11 -12 -6z"/>
<path d="M1876 423 c-6 -14 -5 -15 5 -6 7 7 10 15 7 18 -3 3 -9 -2 -12 -12z"/>
<path d="M1993 375 c0 -8 4 -12 9 -9 5 3 6 10 3 15 -9 13 -12 11 -12 -6z"/>
<path d="M2226 342 c-3 -5 1 -9 9 -9 8 0 12 4 9 9 -3 4 -7 8 -9 8 -2 0 -6 -4
-9 -8z"/>
<path d="M2439 290 c-3 -20 -4 -25 -12 -37 -5 -7 -5 -13 0 -13 4 0 2 -4 -6 -9
-18 -12 -23 -39 -9 -48 6 -3 8 -1 4 5 -3 5 0 13 6 15 9 4 9 6 -1 6 -11 1 -10
5 4 15 10 7 20 27 21 45 2 28 -4 46 -7 21z"/>
<path d="M2056 127 c3 -8 11 -14 19 -14 20 0 19 4 -5 17 -15 8 -18 8 -14 -3z"/>
<path d="M2125 97 c17 -14 32 -23 35 -20 3 3 -1 8 -8 10 -6 3 -9 10 -5 16 3 7
3 9 -2 5 -4 -4 -17 -3 -29 3 -13 7 -9 1 9 -14z"/>
<path d="M2238 93 c6 -2 9 -10 6 -15 -4 -7 -2 -8 5 -4 13 9 5 26 -12 25 -9 0
-8 -2 1 -6z"/>
<path d="M2295 89 c-4 -6 -5 -12 -2 -15 2 -3 7 2 10 11 7 17 1 20 -8 4z"/>
</g>
</svg>
